# xmcd
#
# Track frame offsets: 
#        150
#        13115
#        33581
#        53982
#        72960
#        99174
#        120932
#        136909
#        153173
#        174584
#        201038
#        220651
#        243069
#        278773
#        297968
#
# Disc length: 4211 seconds
#
# Revision: 0
# Processed by: cddbd v1.5.2PL0 Copyright (c) Steve Scherf et al.
# Submitted via: ExactAudioCopy v0.95b4
#
DISCID=c810710f
DTITLE=Igor Prado Band - Upside Down
DYEAR=2007
DGENRE=Blues
TTITLE0=Upsidedown Intro
TTITLE1=Strange Things Happen'
TTITLE2=Hoo-ray for Hoo-raw
TTITLE3=Dancing Senhorita
TTITLE4=Bumble Bee
TTITLE5=Tigerman Instrumental
TTITLE6=Mary Jo
TTITLE7=Whiskey, Cachaça and Wimmen'
TTITLE8=Hey! Boogie
TTITLE9=Lonesome Cabin
TTITLE10=Give a Little
TTITLE11=It Ain't No Man
TTITLE12=My Blues After Hours
TTITLE13=Mr. King Collins Medley
TTITLE14=Maceo's Groove
EXTD=
EXTT0=
EXTT1=
EXTT2=
EXTT3=
EXTT4=
EXTT5=
EXTT6=
EXTT7=
EXTT8=
EXTT9=
EXTT10=
EXTT11=
EXTT12=
EXTT13=
EXTT14=
PLAYORDER=
